filtEMG_segment_16.mot
version=1
nRows=66
nColumns=5
inDegrees=no
endheader
                Time	                LGAS	             LLATGAS	                LSOL	                LTIA	
          1.57500000	          0.00256673	          0.01418215	          0.00307350	          0.00304400	
          1.58000000	          0.00244213	          0.01403752	          0.00303077	          0.00302785	
          1.58500000	          0.00236781	          0.01387899	          0.00298100	          0.00299750	
          1.59000000	          0.00234628	          0.01372002	          0.00292783	          0.00295480	
          1.59500000	          0.00237713	          0.01357390	          0.00287463	          0.00290285	
          1.60000000	          0.00245691	          0.01345207	          0.00282408	          0.00284547	
          1.60500000	          0.00257925	          0.01336255	          0.00277791	          0.00278651	
          1.61000000	          0.00273515	          0.01330870	          0.00273674	          0.00272933	
          1.61500000	          0.00291358	          0.01328872	          0.00269999	          0.00267625	
          1.62000000	          0.00310229	          0.01329568	          0.00266605	          0.00262828	
          1.62500000	          0.00328858	          0.01331853	          0.00263251	          0.00258508	
          1.63000000	          0.00346032	          0.01334356	          0.00259652	          0.00254506	
          1.63500000	          0.00360672	          0.01335654	          0.00255528	          0.00250574	
          1.64000000	          0.00371911	          0.01334500	          0.00250655	          0.00246429	
          1.64500000	          0.00379142	          0.01330039	          0.00244909	          0.00241805	
          1.65000000	          0.00382050	          0.01321982	          0.00238313	          0.00236514	
          1.65500000	          0.00380621	          0.01310716	          0.00231060	          0.00230493	
          1.66000000	          0.00375119	          0.01297307	          0.00223528	          0.00223838	
          1.66500000	          0.00366060	          0.01283416	          0.00216262	          0.00216815	
          1.67000000	          0.00354159	          0.01271126	          0.00209946	          0.00209853	
          1.67500000	          0.00340278	          0.01262692	          0.00205345	          0.00203508	
          1.68000000	          0.00325367	          0.01260257	          0.00203229	          0.00198412	
          1.68500000	          0.00310412	          0.01265567	          0.00204296	          0.00195204	
          1.69000000	          0.00296380	          0.01279718	          0.00209076	          0.00194457	
          1.69500000	          0.00284178	          0.01302969	          0.00217860	          0.00196605	
          1.70000000	          0.00274613	          0.01334654	          0.00230629	          0.00201883	
          1.70500000	          0.00268360	          0.01373184	          0.00247019	          0.00210284	
          1.71000000	          0.00265934	          0.01416170	          0.00266317	          0.00221538	
          1.71500000	          0.00267662	          0.01460629	          0.00287482	          0.00235121	
          1.72000000	          0.00273661	          0.01503267	          0.00309219	          0.00250289	
          1.72500000	          0.00283820	          0.01540802	          0.00330067	          0.00266141	
          1.73000000	          0.00297787	          0.01570306	          0.00348528	          0.00281687	
          1.73500000	          0.00314960	          0.01589507	          0.00363195	          0.00295946	
          1.74000000	          0.00334503	          0.01597044	          0.00372889	          0.00308024	
          1.74500000	          0.00355367	          0.01592630	          0.00376782	          0.00317196	
          1.75000000	          0.00376336	          0.01577106	          0.00374487	          0.00322970	
          1.75500000	          0.00396091	          0.01552385	          0.00366118	          0.00325129	
          1.76000000	          0.00413289	          0.01521274	          0.00352294	          0.00323740	
          1.76500000	          0.00426662	          0.01487208	          0.00334105	          0.00319150	
          1.77000000	          0.00435113	          0.01453909	          0.00313024	          0.00311944	
          1.77500000	          0.00437808	          0.01425008	          0.00290780	          0.00302896	
          1.78000000	          0.00434266	          0.01403685	          0.00269209	          0.00292895	
          1.78500000	          0.00424410	          0.01392345	          0.00250087	          0.00282867	
          1.79000000	          0.00408603	          0.01392381	          0.00234970	          0.00273699	
          1.79500000	          0.00387637	          0.01404035	          0.00225051	          0.00266164	
          1.80000000	          0.00362701	          0.01426389	          0.00221056	          0.00260862	
          1.80500000	          0.00335301	          0.01457465	          0.00223182	          0.00258174	
          1.81000000	          0.00307166	          0.01494436	          0.00231089	          0.00258247	
          1.81500000	          0.00280126	          0.01533919	          0.00243936	          0.00260994	
          1.82000000	          0.00255982	          0.01572325	          0.00260469	          0.00266122	
          1.82500000	          0.00236386	          0.01606214	          0.00279143	          0.00273176	
          1.83000000	          0.00222719	          0.01632636	          0.00298267	          0.00281604	
          1.83500000	          0.00216001	          0.01649415	          0.00316157	          0.00290825	
          1.84000000	          0.00216821	          0.01655347	          0.00331277	          0.00300291	
          1.84500000	          0.00225301	          0.01650294	          0.00342372	          0.00309547	
          1.85000000	          0.00241097	          0.01635175	          0.00348558	          0.00318265	
          1.85500000	          0.00263422	          0.01611842	          0.00349380	          0.00326265	
          1.86000000	          0.00291111	          0.01582867	          0.00344830	          0.00333506	
          1.86500000	          0.00322706	          0.01551270	          0.00335323	          0.00340060	
          1.87000000	          0.00356558	          0.01520200	          0.00321641	          0.00346072	
          1.87500000	          0.00390941	          0.01492621	          0.00304850	          0.00351709	
          1.88000000	          0.00424170	          0.01471025	          0.00286197	          0.00357115	
          1.88500000	          0.00454711	          0.01457206	          0.00267002	          0.00362371	
          1.89000000	          0.00481273	          0.01452100	          0.00248545	          0.00367470	
          1.89500000	          0.00502882	          0.01455725	          0.00231971	          0.00372305	
          1.90000000	          0.00518927	          0.01467189	          0.00218202	          0.00376673	
